<svg xmlns="http://www.w3.org/2000/svg" xml:space="preserve" viewBox="0 0 99.6 99.6"><path d="M47 79.1c-10.9 0-21-5.4-28.3-14.7 5.5 11.7 17.4 19.8 31.1 19.8 12.7 0 23.9-7 29.8-17.3l-5.3-3.4c-5.9 9.8-16 15.6-27.3 15.6m25.3-33.6H84c-.7-5.9-3-11.3-6.3-15.9l-11.9 7.7c3.6 5.7 4.1 12 1.3 18.3-3.3 7.5-11 14-19.6 17.1 3.9-.5 7.7-1.7 11.1-3.6 8.4-4.7 13.3-12.8 13.7-22.7zm11.9 4.3c0-.8 0-1.7-.1-2.5H74c-.7 10.1-6 18.5-14.6 23.3-4.9 2.7-10.5 4.1-16.2 4.1-4.4 0-8.9-.8-13.2-2.4 5.2 3.2 11 5 17 5h.1c10.9 0 20.7-5.8 26.2-15.4l.5-.8 6.8 4.3c2.3-4.7 3.7-10 3.6-15.6m1.9 0c0 20-16.2 36.2-36.2 36.2S13.6 69.8 13.6 49.8s16.2-36.2 36.2-36.2S86 29.8 86.1 49.8m13.5 0C99.6 22.3 77.3 0 49.8 0S0 22.3 0 49.8s22.3 49.8 49.8 49.8 49.8-22.3 49.8-49.8" style="fill:#eb1f1f"/></svg>